<svg xmlns="http://www.w3.org/2000/svg" xmlns:xlink="http://www.w3.org/1999/xlink" width="83.272" height="87.013" viewBox="0 0 83.272 87.013">
  <defs>
    <filter id="Caminho_24402" x="0" y="3.741" width="83.272" height="83.272" filterUnits="userSpaceOnUse">
      <feOffset dy="3" input="SourceAlpha"/>
      <feGaussianBlur stdDeviation="3" result="blur"/>
      <feFlood flood-opacity="0.251"/>
      <feComposite operator="in" in2="blur"/>
      <feComposite in="SourceGraphic"/>
    </filter>
  </defs>
  <g id="facebook_4_" data-name="facebook (4)" transform="translate(9 9.741)">
    <circle id="Elipse_27" data-name="Elipse 27" cx="27.5" cy="27.5" r="27.5" transform="translate(10.272 10.272)" fill="#4b9719"/>
    <path id="Caminho_24393" data-name="Caminho 24393" d="M291.674,508.668q-.408.067-.819.123Q291.266,508.734,291.674,508.668Zm0,0" transform="translate(-253.776 -443.821)" fill="#fff"/>
    <path id="Caminho_24394" data-name="Caminho 24394" d="M299.729,507.793c-.13.024-.26.046-.39.068C299.469,507.839,299.6,507.817,299.729,507.793Zm0,0" transform="translate(-261.178 -443.057)" fill="#fff"/>
    <path id="Caminho_24395" data-name="Caminho 24395" d="M278.569,510.34q-.477.054-.96.095Q278.091,510.394,278.569,510.34Zm0,0" transform="translate(-242.219 -445.28)" fill="#fff"/>
    <path id="Caminho_24396" data-name="Caminho 24396" d="M286.906,509.738c-.153.02-.307.039-.46.057C286.6,509.777,286.753,509.758,286.906,509.738Zm0,0" transform="translate(-249.928 -444.755)" fill="#fff"/>
    <path id="Caminho_24397" data-name="Caminho 24397" d="M307.008,506.41l-.345.072Zm0,0" transform="translate(-267.569 -441.851)" fill="#fff"/>
    <path id="Caminho_24398" data-name="Caminho 24398" d="M324.762,502.113l-.278.077Zm0,0" transform="translate(-283.118 -438.102)" fill="#fff"/>
    <path id="Caminho_24399" data-name="Caminho 24399" d="M319.362,503.543l-.3.079Zm0,0" transform="translate(-278.384 -439.349)" fill="#fff"/>
    <path id="Caminho_24400" data-name="Caminho 24400" d="M312.388,505.254l-.322.072Zm0,0" transform="translate(-272.283 -440.842)" fill="#fff"/>
    <path id="Caminho_24401" data-name="Caminho 24401" d="M274,511.09q-.258.022-.516.039Q273.739,511.112,274,511.09Zm0,0" transform="translate(-238.616 -445.934)" fill="#fff"/>
    <g transform="matrix(1, 0, 0, 1, -9, -9.74)" filter="url(#Caminho_24402)">
      <path id="Caminho_24402-2" data-name="Caminho 24402" d="M65.272,32.636A32.636,32.636,0,1,0,32.636,65.272c.192,0,.382,0,.574-.007V39.859H26.2V31.687H33.21V25.674C33.21,18.7,37.467,14.9,43.688,14.9a57.718,57.718,0,0,1,6.286.321v7.289h-4.29c-3.384,0-4.04,1.608-4.04,3.968v5.2h8.092l-1.055,8.171H41.644V64.011A32.654,32.654,0,0,0,65.272,32.636Zm0,0" transform="translate(9 9.74)" fill="#fff"/>
    </g>
    <path id="Caminho_24403" data-name="Caminho 24403" d="M265.913,511.43q-.509.033-1.023.051Q265.4,511.464,265.913,511.43Zm0,0" transform="translate(-231.121 -446.231)" fill="#fff"/>
    <path id="Caminho_24404" data-name="Caminho 24404" d="M261.046,511.836q-.27.009-.542.013Q260.775,511.845,261.046,511.836Zm0,0" transform="translate(-227.294 -446.585)" fill="#fff"/>
    <g id="Grupo_4807" data-name="Grupo 4807" transform="translate(-1548.728 -148.728)">
      <g id="_020202ff" data-name="#020202ff" transform="translate(1555.635 156.3) rotate(122)">
        <path id="Caminho_3" data-name="Caminho 3" d="M.909.115C3-1.017,8,6.534,7.612,8.893c-.155,2.532-3.718,3.885-5.415,1.949C.587,9.4-1.082.941.909.115Z" transform="translate(0 0)" fill="#fff"/>
      </g>
      <g id="_020202ff-2" data-name="#020202ff" transform="translate(1558.535 154.052) rotate(160)">
        <path id="Caminho_3-2" data-name="Caminho 3" d="M.909.115C3-1.017,8,6.534,7.612,8.893c-.155,2.532-3.718,3.885-5.415,1.949C.587,9.4-1.082.941.909.115Z" transform="translate(0 0)" fill="#fff"/>
      </g>
      <g id="_020202ff-3" data-name="#020202ff" transform="translate(1561.794 152.465) rotate(-163)">
        <path id="Caminho_3-3" data-name="Caminho 3" d="M.909.115C3-1.017,8,6.534,7.612,8.893c-.155,2.532-3.718,3.885-5.415,1.949C.587,9.4-1.082.941.909.115Z" transform="translate(0)" fill="#fff"/>
      </g>
    </g>
  </g>
</svg>
