<svg xmlns="http://www.w3.org/2000/svg" width="20.384" height="21.562" viewBox="0 0 20.384 21.562">
  <g id="Grupo_4768" data-name="Grupo 4768" transform="translate(0)">
    <path id="Caminho_24598" data-name="Caminho 24598" d="M18.166,54.116a7.113,7.113,0,1,1,.983,14.061,7.114,7.114,0,0,1-.983-14.061Z" transform="translate(-6.377 -46.652)" fill="#fafafa"/>
    <g id="_020202ff" data-name="#020202ff" transform="matrix(-0.588, 0.809, -0.809, -0.588, 7.086, 8.66)">
      <path id="Caminho_3" data-name="Caminho 3" d="M.46.058C1.519-.515,4.05,3.307,3.853,4.5a1.631,1.631,0,0,1-2.741.986C.3,4.756-.548.476.46.058Z" transform="translate(0 0)" fill="#fafafa"/>
    </g>
    <g id="_020202ff-2" data-name="#020202ff" transform="translate(8.63 7.627) rotate(164)">
      <path id="Caminho_3-2" data-name="Caminho 3" d="M.46.058C1.519-.515,4.05,3.307,3.853,4.5a1.631,1.631,0,0,1-2.741.986C.3,4.756-.548.476.46.058Z" transform="translate(0 0)" fill="#fafafa"/>
    </g>
    <g id="_020202ff-3" data-name="#020202ff" transform="translate(10.331 6.941) rotate(-159)">
      <path id="Caminho_3-3" data-name="Caminho 3" d="M.46.058C1.519-.515,4.05,3.307,3.853,4.5a1.631,1.631,0,0,1-2.741.986C.3,4.756-.548.476.46.058Z" transform="translate(0 0)" fill="#fafafa"/>
    </g>
  </g>
</svg>
