<svg xmlns="http://www.w3.org/2000/svg" xmlns:xlink="http://www.w3.org/1999/xlink" width="82.802" height="89.013" viewBox="0 0 82.802 89.013">
  <defs>
    <filter id="Caminho_24407" x="0" y="6.211" width="82.802" height="82.802" filterUnits="userSpaceOnUse">
      <feOffset dy="3" input="SourceAlpha"/>
      <feGaussianBlur stdDeviation="3" result="blur"/>
      <feFlood flood-opacity="0.251"/>
      <feComposite operator="in" in2="blur"/>
      <feComposite in="SourceGraphic"/>
    </filter>
  </defs>
  <g id="instagram_4_" data-name="instagram (4)" transform="translate(9 12.211)">
    <circle id="Elipse_28" data-name="Elipse 28" cx="27.5" cy="27.5" r="27.5" transform="translate(4.802 9.802)" fill="#4b9719"/>
    <path id="Caminho_24405" data-name="Caminho 24405" d="M219.4,213.2a6.2,6.2,0,1,1-6.2-6.2A6.2,6.2,0,0,1,219.4,213.2Zm0,0" transform="translate(-180.801 -180.801)" fill="#fff"/>
    <path id="Caminho_24406" data-name="Caminho 24406" d="M165.242,139.769a6.161,6.161,0,0,0-3.531-3.531,10.294,10.294,0,0,0-3.454-.64c-1.962-.089-2.551-.109-7.518-.109s-5.557.019-7.518.108a10.3,10.3,0,0,0-3.454.641,6.164,6.164,0,0,0-3.531,3.531,10.3,10.3,0,0,0-.64,3.455c-.089,1.962-.109,2.55-.109,7.518s.019,5.556.109,7.518a10.294,10.294,0,0,0,.64,3.454,6.161,6.161,0,0,0,3.531,3.531,10.281,10.281,0,0,0,3.455.641c1.962.089,2.55.108,7.518.108s5.557-.019,7.518-.108a10.282,10.282,0,0,0,3.455-.641,6.161,6.161,0,0,0,3.531-3.531,10.3,10.3,0,0,0,.641-3.454c.089-1.962.108-2.551.108-7.518s-.019-5.557-.108-7.518A10.282,10.282,0,0,0,165.242,139.769Zm-14.5,20.527a9.554,9.554,0,1,1,9.554-9.554A9.554,9.554,0,0,1,150.738,160.3Zm9.931-17.253a2.233,2.233,0,1,1,2.233-2.233A2.233,2.233,0,0,1,160.669,143.043Zm0,0" transform="translate(-118.337 -118.34)" fill="#fff"/>
    <g transform="matrix(1, 0, 0, 1, -9, -12.21)" filter="url(#Caminho_24407)">
      <path id="Caminho_24407-2" data-name="Caminho 24407" d="M32.4,0A32.4,32.4,0,1,0,64.8,32.4,32.4,32.4,0,0,0,32.4,0ZM50.894,40.071a13.65,13.65,0,0,1-.865,4.516,9.513,9.513,0,0,1-5.441,5.441,13.66,13.66,0,0,1-4.516.865c-1.984.09-2.618.112-7.671.112s-5.687-.022-7.671-.112a13.66,13.66,0,0,1-4.516-.865,9.513,9.513,0,0,1-5.441-5.441,13.647,13.647,0,0,1-.865-4.516c-.091-1.985-.113-2.618-.113-7.671s.021-5.687.112-7.671a13.652,13.652,0,0,1,.864-4.516,9.52,9.52,0,0,1,5.442-5.441,13.663,13.663,0,0,1,4.516-.865c1.984-.09,2.618-.112,7.671-.112s5.687.022,7.671.113a13.666,13.666,0,0,1,4.516.864,9.516,9.516,0,0,1,5.441,5.442,13.649,13.649,0,0,1,.865,4.516c.09,1.984.112,2.618.112,7.671S50.985,38.087,50.894,40.071Zm0,0" transform="translate(9 12.21)" fill="#fff"/>
    </g>
    <g id="Grupo_4808" data-name="Grupo 4808" transform="translate(-1632.198 -149.198)">
      <g id="_020202ff" data-name="#020202ff" transform="translate(1640.635 154.3) rotate(122)">
        <path id="Caminho_3" data-name="Caminho 3" d="M.909.115C3-1.017,8,6.534,7.612,8.893c-.155,2.532-3.718,3.885-5.415,1.949C.587,9.4-1.082.941.909.115Z" transform="translate(0 0)" fill="#fff"/>
      </g>
      <g id="_020202ff-2" data-name="#020202ff" transform="translate(1643.535 152.052) rotate(160)">
        <path id="Caminho_3-2" data-name="Caminho 3" d="M.909.115C3-1.017,8,6.534,7.612,8.893c-.155,2.532-3.718,3.885-5.415,1.949C.587,9.4-1.082.941.909.115Z" transform="translate(0 0)" fill="#fff"/>
      </g>
      <g id="_020202ff-3" data-name="#020202ff" transform="translate(1646.794 150.465) rotate(-163)">
        <path id="Caminho_3-3" data-name="Caminho 3" d="M.909.115C3-1.017,8,6.534,7.612,8.893c-.155,2.532-3.718,3.885-5.415,1.949C.587,9.4-1.082.941.909.115Z" transform="translate(0)" fill="#fff"/>
      </g>
    </g>
  </g>
</svg>
