<svg xmlns="http://www.w3.org/2000/svg" width="85.968" height="20.649" viewBox="0 0 85.968 20.649">
  <g id="_00adefff" data-name="#00adefff" transform="translate(0.5 0.283)">
    <path id="Caminho_24777" data-name="Caminho 24777" d="M1349.54,0h.45a8.135,8.135,0,0,1,4.649,1.622,8.038,8.038,0,0,1,2.863,4.065,7.942,7.942,0,0,1-.176,5.137,8.1,8.1,0,0,1-15.126-.032,7.945,7.945,0,0,1-.116-5.255,8.043,8.043,0,0,1,2.924-4A8.14,8.14,0,0,1,1349.54,0M1347.2.759a3.329,3.329,0,0,0,.359.361,8.717,8.717,0,0,1,1.367-.751,8.267,8.267,0,0,0-1.725.39m3.459-.373a9.843,9.843,0,0,1,1.324.736,4.5,4.5,0,0,0,.355-.359,7.468,7.468,0,0,0-1.679-.376M1349.228.6a8.237,8.237,0,0,0-1.39.728,3.61,3.61,0,0,0,.62.344c.237-.371.5-.726.77-1.072m1.083,0a12.739,12.739,0,0,1,.779,1.076,3.962,3.962,0,0,0,.619-.341,7.886,7.886,0,0,0-1.4-.735m-1.533,1.19a3.93,3.93,0,0,0,.821.145c0-.42,0-.841,0-1.261a10.98,10.98,0,0,0-.822,1.116m1.157-1.126q0,.635,0,1.271a3.9,3.9,0,0,0,.834-.145,10.616,10.616,0,0,0-.834-1.126m-6.235,2.55a7.619,7.619,0,0,0-1.678,4.607,7.335,7.335,0,0,1,1.3-.887.834.834,0,0,0,.47-.682,3.3,3.3,0,0,0-.111-.532,2.968,2.968,0,0,1,.111-1.918,2.3,2.3,0,0,1,2.117-1.268,3.359,3.359,0,0,1,1.982.851,2.176,2.176,0,0,1,.8,1.2,1.706,1.706,0,0,1-.312,1.3,1.241,1.241,0,0,0-.294.56c-.031.17.1.319.083.487-.055.11-.209.106-.284.2a1.323,1.323,0,0,1-.009.25,1.033,1.033,0,0,1-.151.1c-.01.072.015.154-.023.22-.1.029-.218.015-.277.112a.708.708,0,0,1-.4.315c-.446.125-.864-.194-1.309-.136a.36.36,0,0,0-.3.358,18.053,18.053,0,0,1,.415,2.647c-.025.2.154.326.314.394.441.178.932.063,1.381.208.151-.024.246-.16.372-.235a.715.715,0,0,1,.625-.15c.085.055-.009.175-.006.253.17,0,.332-.13.5-.062.125.048.146.2.138.318a1.6,1.6,0,0,1-.239.713.8.8,0,0,1-.761.36c-.2,0-.386-.107-.585-.13a14.272,14.272,0,0,1-1.706.268,1.5,1.5,0,0,1-1.094-.276,1.254,1.254,0,0,0-.258.98,7.076,7.076,0,0,0,.8.634,3.03,3.03,0,0,0,1.624-.092,9.436,9.436,0,0,1,2.787-.815.585.585,0,0,0,.494-.412,1.136,1.136,0,0,0-.091-.72c-.13-.395-.042-.826-.181-1.216-.236-.591-.923-.781-1.269-1.284a.636.636,0,0,1,.174-.832c.153-.126.01-.338.088-.491.081-.136.31-.039.364-.206.019-.138-.039-.279,0-.414.047-.12.213-.007.282-.107.155-.193-.122-.392-.091-.6,0-.185.222-.222.367-.216a1.768,1.768,0,0,0,1.474-.6,2.97,2.97,0,0,1,2.086-1.124,3.317,3.317,0,0,1,2.288.883,3.567,3.567,0,0,1,.875,4.557,3.674,3.674,0,0,1-1,1.058,2.7,2.7,0,0,1-1.962.584.164.164,0,0,0-.19.138,1.328,1.328,0,0,0,.178.985,2.2,2.2,0,0,0,.845.764,7.694,7.694,0,0,0,2.926-4.687,7.614,7.614,0,0,0-1.128-5.614,12.369,12.369,0,0,1-1.345.77c.077.18.154.359.228.541l-.434-.191c-.031-.069-.061-.138-.09-.207l-.2.083a5.547,5.547,0,0,0-.6-.12c.223-.084.449-.162.665-.265a7.813,7.813,0,0,0-.967-1.465,7.457,7.457,0,0,1-1.439.611c.169.443.314.9.464,1.347-.106.034-.212.067-.317.1-.146-.453-.3-.9-.464-1.351a8.682,8.682,0,0,1-1.817.249c0,.506,0,1.013,0,1.519.619-.027,1.236-.091,1.853-.155-.143.126-.289.251-.43.379-.472.043-.945.084-1.42.1-.008.184,0,.368,0,.552h-.335c0-.8,0-1.6,0-2.4-.263-.011-.525-.016-.786-.034-.065-.121-.136-.238-.212-.352.331.035.664.043,1,.057,0-.439,0-.877,0-1.316a3.989,3.989,0,0,1-1-.185c-.187.314-.353.638-.534.954-.088-.066-.179-.128-.272-.186q.243-.448.492-.893a3.743,3.743,0,0,1-.734-.425c-.315.229-.611.483-.912.729-.125-.037-.251-.066-.377-.091.336-.289.667-.588,1.024-.852a5.629,5.629,0,0,1-.409-.436,7.76,7.76,0,0,0-3.174,2.335m8.971-2.332a4.383,4.383,0,0,1-.408.433,8.585,8.585,0,0,1,1.329,1.217,7.228,7.228,0,0,0,.89-.625,7.845,7.845,0,0,0-1.811-1.025m-1.409,1.074a12.733,12.733,0,0,1,.676,1.3,7.057,7.057,0,0,0,1.356-.568A8.228,8.228,0,0,0,1352,1.532a4.208,4.208,0,0,1-.739.426m-1.328.308c0,.439,0,.877,0,1.315a8.281,8.281,0,0,0,1.675-.223,10.223,10.223,0,0,0-.658-1.278,4.026,4.026,0,0,1-1.017.186m3.869.522a8.624,8.624,0,0,1,.969,1.494,13.1,13.1,0,0,0,1.3-.743,7.852,7.852,0,0,0-1.323-1.418A8.307,8.307,0,0,1,1353.8,2.788Z" transform="translate(-1276.166)" fill="#fff"/>
    <path id="Caminho_24778" data-name="Caminho 24778" d="M1071.989,4.62a5.033,5.033,0,0,1,2.053-.083c.3.052.6.111.894.165,0,.625,0,1.25,0,1.876a7.13,7.13,0,0,0-2.074.013,1.314,1.314,0,0,0-.821.5,1.666,1.666,0,0,0-.228,1.021c.005.74,0,1.481,0,2.221h2.783q0,.785,0,1.571h-2.784q0,5.177,0,10.355h-2.279q0-5.177,0-10.355h-2.071q0-.785,0-1.571h2.071q0-1.259,0-2.516a3.461,3.461,0,0,1,.651-2.088A3.2,3.2,0,0,1,1071.989,4.62Z" transform="translate(-1015.332 -4.249)" fill="#fff" stroke="#fff" stroke-width="1"/>
    <path id="Caminho_24779" data-name="Caminho 24779" d="M516.551,16.14h2.726q0,1.23,0,2.461-1.363,0-2.727,0C516.551,17.781,516.549,16.96,516.551,16.14Z" transform="translate(-491.322 -15.352)" fill="#fff" stroke="#fff" stroke-width="1"/>
    <path id="Caminho_24780" data-name="Caminho 24780" d="M1685.47,41.29a4.877,4.877,0,0,1,1.522,1.943,2.054,2.054,0,0,1,.05,1.315A5.108,5.108,0,0,1,1685.47,41.29Z" transform="translate(-1603.154 -39.273)" fill="#fff"/>
    <path id="Caminho_24781" data-name="Caminho 24781" d="M1295.5,43.275a4.861,4.861,0,0,1,1.523-1.945,5.1,5.1,0,0,1-1.572,3.257A2.043,2.043,0,0,1,1295.5,43.275Z" transform="translate(-1232.1 -39.312)" fill="#fff"/>
    <path id="Caminho_24782" data-name="Caminho 24782" d="M1672.64,76.5a4.284,4.284,0,0,1,1.762,1.7,2.85,2.85,0,0,1,.237,1.584,5.616,5.616,0,0,1-1.3-1.642A6.521,6.521,0,0,1,1672.64,76.5Z" transform="translate(-1590.951 -72.764)" fill="#fff"/>
    <path id="Caminho_24783" data-name="Caminho 24783" d="M1301.211,78.965a4.313,4.313,0,0,1,1.782-1.645,7.168,7.168,0,0,1-.989,2.045,4.878,4.878,0,0,1-1.073,1.2A2.837,2.837,0,0,1,1301.211,78.965Z" transform="translate(-1237.382 -73.544)" fill="#fff"/>
    <path id="Caminho_24784" data-name="Caminho 24784" d="M1274.27,83.16a7.423,7.423,0,0,1,.5,2.483,6.149,6.149,0,0,1-.118,1.945,3.081,3.081,0,0,1-.717-1.356A5.269,5.269,0,0,1,1274.27,83.16Z" transform="translate(-1211.621 -79.099)" fill="#fff"/>
    <path id="Caminho_24785" data-name="Caminho 24785" d="M1721.272,85.708a7.337,7.337,0,0,1,.5-2.438,5.263,5.263,0,0,1,.354,2.99,3.074,3.074,0,0,1-.736,1.433A6.277,6.277,0,0,1,1721.272,85.708Z" transform="translate(-1637.182 -79.203)" fill="#fff"/>
    <path id="Caminho_24786" data-name="Caminho 24786" d="M263.773,118.533a4.271,4.271,0,0,1,3.287-1.753,5.9,5.9,0,0,1,2.754.575,3.479,3.479,0,0,1,1.58,1.546,4.316,4.316,0,0,1,.415,1.944q0,4.145,0,8.29h-2.292q0-3.827,0-7.654a3.25,3.25,0,0,0-.74-2.259,2.723,2.723,0,0,0-1.96-.7,3.167,3.167,0,0,0-2.356.943,2.372,2.372,0,0,0-.627.994,6.728,6.728,0,0,0-.278,2.092q0,3.293,0,6.586H261.26q0-6,0-12h2.246c0,.6-.008,1.192.006,1.788A2.748,2.748,0,0,0,263.773,118.533Z" transform="translate(-248.5 -111.075)" fill="#fff" stroke="#fff" stroke-width="1"/>
    <path id="Caminho_24787" data-name="Caminho 24787" d="M607.765,117.292a5.646,5.646,0,0,1,2.886.337,4.057,4.057,0,0,1,1.884,1.576,4.521,4.521,0,0,1,.663,2.217c-.758,0-1.517,0-2.275,0a2.923,2.923,0,0,0-.847-2.007,2.671,2.671,0,0,0-2.167-.489,2.443,2.443,0,0,0-1.653,1.04,5.431,5.431,0,0,0-.789,2.643,10.706,10.706,0,0,0,.174,3.073,3.557,3.557,0,0,0,1.1,2,2.8,2.8,0,0,0,2.154.525,2.262,2.262,0,0,0,1.453-.777,3.268,3.268,0,0,0,.666-1.877c.759,0,1.517,0,2.276,0a4.422,4.422,0,0,1-3.563,4.183,6.633,6.633,0,0,1-2.6.026,4.675,4.675,0,0,1-2.428-1.21,5.148,5.148,0,0,1-1.29-2.181,9.155,9.155,0,0,1-.376-2.8,8.242,8.242,0,0,1,.591-3.117,5.277,5.277,0,0,1,1.6-2.153A5.111,5.111,0,0,1,607.765,117.292Z" transform="translate(-573.584 -111.513)" fill="#fff" stroke="#fff" stroke-width="1"/>
    <path id="Caminho_24788" data-name="Caminho 24788" d="M838.167,117.474a6.58,6.58,0,0,1,2.935-.024,4.932,4.932,0,0,1,2.09.96,4.53,4.53,0,0,1,1.344,1.844,7.072,7.072,0,0,1,.47,2.594c0,.4,0,.794,0,1.191H836.52a5.053,5.053,0,0,0,.5,2.786,2.72,2.72,0,0,0,1.443,1.286,3.8,3.8,0,0,0,1.8.135,2.417,2.417,0,0,0,1.5-.711,3.143,3.143,0,0,0,.688-1.668h2.4a4.37,4.37,0,0,1-3.472,3.842,7.812,7.812,0,0,1-2.786.168,4.864,4.864,0,0,1-2.695-1.156,5.028,5.028,0,0,1-1.379-2.183,8.934,8.934,0,0,1-.414-2.81,8.4,8.4,0,0,1,.521-3.035,5.461,5.461,0,0,1,1.44-2.135,4.89,4.89,0,0,1,2.087-1.084m-.817,2.46a4,4,0,0,0-.834,2.538c2.031.007,4.063,0,6.094,0a5.2,5.2,0,0,0-.123-1.289,2.888,2.888,0,0,0-1.023-1.679,3.258,3.258,0,0,0-2.229-.557A2.751,2.751,0,0,0,837.35,119.934Z" transform="translate(-793.383 -111.567)" fill="#fff" stroke="#fff" stroke-width="1"/>
    <path id="Caminho_24789" data-name="Caminho 24789" d="M0,124.06H2.293V130.6a7.287,7.287,0,0,0,.337,2.79A2.071,2.071,0,0,0,3.87,134.6a3.32,3.32,0,0,0,2.694-.263,2.563,2.563,0,0,0,1.135-1.35,8.525,8.525,0,0,0,.433-2.672q0-3.127,0-6.253h2.293q0,6,0,12H8.182c-.01-.6.019-1.2-.015-1.8a7.747,7.747,0,0,1-.488.651,4.325,4.325,0,0,1-2.2,1.327,5.59,5.59,0,0,1-2.391.1,3.621,3.621,0,0,1-2.149-1.3,4.684,4.684,0,0,1-.937-2.7Z" transform="translate(0 -118.001)" fill="#fff" stroke="#fff" stroke-width="1"/>
    <path id="Caminho_24790" data-name="Caminho 24790" d="M520.975,123.84h2.293c0,4,.006,8,0,12q-1.142-.01-2.284,0C520.968,131.843,520.977,127.841,520.975,123.84Z" transform="translate(-495.53 -117.792)" fill="#fff" stroke="#fff" stroke-width="1"/>
    <path id="Caminho_24791" data-name="Caminho 24791" d="M1297.568,129.876a4.777,4.777,0,0,1,1.234-1.656,3.624,3.624,0,0,1-.118,1.212,9.557,9.557,0,0,1-.673,1.867,3.452,3.452,0,0,1-.449.725A2.569,2.569,0,0,1,1297.568,129.876Z" transform="translate(-1233.969 -121.958)" fill="#fff"/>
    <path id="Caminho_24792" data-name="Caminho 24792" d="M1687.064,128.22a4.232,4.232,0,0,1,1.439,2.357,2.691,2.691,0,0,1-.188,1.475,6.873,6.873,0,0,1-.968-2.03A4.688,4.688,0,0,1,1687.064,128.22Z" transform="translate(-1604.66 -121.958)" fill="#fff"/>
    <path id="Caminho_24793" data-name="Caminho 24793" d="M1264.823,149.65a7.977,7.977,0,0,1,1.3,2.351,5.72,5.72,0,0,1,.486,1.927,3.409,3.409,0,0,1-1.38-1.476A5.241,5.241,0,0,1,1264.823,149.65Z" transform="translate(-1203.018 -142.341)" fill="#fff"/>
    <path id="Caminho_24794" data-name="Caminho 24794" d="M1713.149,151.984a7.989,7.989,0,0,1,1.3-2.354c.008.147.02.294.035.441v.438a4.88,4.88,0,0,1-.425,1.888,3.415,3.415,0,0,1-1.4,1.514A5.8,5.8,0,0,1,1713.149,151.984Z" transform="translate(-1629.016 -142.322)" fill="#fff"/>
    <path id="Caminho_24795" data-name="Caminho 24795" d="M1310.145,177.05l.034.01a4,4,0,0,1,.173,1.31,11.272,11.272,0,0,1-.127,1.7,3.241,3.241,0,0,1-.347,1.163,3.04,3.04,0,0,1-.6-1.35A3.928,3.928,0,0,1,1310.145,177.05Z" transform="translate(-1245.306 -168.403)" fill="#fff"/>
    <path id="Caminho_24796" data-name="Caminho 24796" d="M1683.087,176.42a4.187,4.187,0,0,1,.92,2.521,2.968,2.968,0,0,1-.629,1.694,3.274,3.274,0,0,1-.354-1.2,10.477,10.477,0,0,1-.1-2.207A3.252,3.252,0,0,1,1683.087,176.42Z" transform="translate(-1600.713 -167.804)" fill="#fff"/>
    <path id="Caminho_24797" data-name="Caminho 24797" d="M1270.45,222.96a7.514,7.514,0,0,1,1.737,1.516,11.384,11.384,0,0,1,1.277,1.7,3.294,3.294,0,0,1,.3.67,4.2,4.2,0,0,1-2.135-1.42A5.279,5.279,0,0,1,1270.45,222.96Z" transform="translate(-1208.403 -212.071)" fill="#fff"/>
    <path id="Caminho_24798" data-name="Caminho 24798" d="M1677.538,225.025a8.753,8.753,0,0,1,2.18-2.035,5.3,5.3,0,0,1-1.154,2.429,4.229,4.229,0,0,1-2.165,1.458A6.322,6.322,0,0,1,1677.538,225.025Z" transform="translate(-1594.527 -212.1)" fill="#fff"/>
    <path id="Caminho_24799" data-name="Caminho 24799" d="M1334.269,228.05a3.433,3.433,0,0,1,.513.871,12.172,12.172,0,0,1,.614,1.866,3.583,3.583,0,0,1,.146,1.5,3.007,3.007,0,0,1-1.382-1.57A4.03,4.03,0,0,1,1334.269,228.05Z" transform="translate(-1268.83 -216.912)" fill="#fff"/>
    <path id="Caminho_24800" data-name="Caminho 24800" d="M1648.716,229.271a3.737,3.737,0,0,1,.621-1.121,3.915,3.915,0,0,1,.041,2.822,3.055,3.055,0,0,1-1.315,1.407,2.85,2.85,0,0,1,.08-1.217A12.739,12.739,0,0,1,1648.716,229.271Z" transform="translate(-1567.536 -217.007)" fill="#fff"/>
    <path id="Caminho_24801" data-name="Caminho 24801" d="M1369.23,281.27a4.292,4.292,0,0,1,.792.548,16.654,16.654,0,0,1,1.836,1.683,1.676,1.676,0,0,1,.46.759,2.754,2.754,0,0,1-1.783-.317,2.654,2.654,0,0,1-1.052-1.5A7.306,7.306,0,0,1,1369.23,281.27Z" transform="translate(-1302.359 -267.533)" fill="#fff"/>
    <path id="Caminho_24802" data-name="Caminho 24802" d="M1584.664,281.8a3.839,3.839,0,0,1,.735-.5,4.058,4.058,0,0,1-1,2.436,2.553,2.553,0,0,1-2.09.554,1.888,1.888,0,0,1,.534-.84A17.305,17.305,0,0,1,1584.664,281.8Z" transform="translate(-1505.032 -267.562)" fill="#fff"/>
    <path id="Caminho_24803" data-name="Caminho 24803" d="M1301.44,296.72a4.947,4.947,0,0,1,1.528.514,14.8,14.8,0,0,1,1.988,1.14,2.588,2.588,0,0,1,.785.742,3.381,3.381,0,0,1-3.463-1.186A7.846,7.846,0,0,1,1301.44,296.72Z" transform="translate(-1237.88 -282.229)" fill="#fff"/>
    <path id="Caminho_24804" data-name="Caminho 24804" d="M1628.215,297.168a4.588,4.588,0,0,1,1.385-.448,5.638,5.638,0,0,1-1.682,1.96,3.381,3.381,0,0,1-2.618.437,2.6,2.6,0,0,1,.794-.749A14.89,14.89,0,0,1,1628.215,297.168Z" transform="translate(-1545.923 -282.229)" fill="#fff"/>
    <path id="Caminho_24805" data-name="Caminho 24805" d="M1362.973,348.372a10.134,10.134,0,0,1,5.323.489,8.773,8.773,0,0,1,1.657-.474,12.086,12.086,0,0,1,5.489.387,8.346,8.346,0,0,1-1.59.516,6.093,6.093,0,0,1-2.685.043,2.231,2.231,0,0,1-1.022-.639,4.776,4.776,0,0,0-1.369.386,8.408,8.408,0,0,1,2.572,2.15,2.9,2.9,0,0,1-.452.354h-.05a4.7,4.7,0,0,0-.613-.731,8.571,8.571,0,0,0-1.935-1.53,9.342,9.342,0,0,0-2.452,2.115.314.314,0,0,0-.074.146h-.056a2.118,2.118,0,0,1-.451-.353,4.11,4.11,0,0,1,.411-.5,8.929,8.929,0,0,1,2.158-1.65,4.667,4.667,0,0,0-1.311-.377c-.083-.025-.133.058-.188.1a1.951,1.951,0,0,1-.771.49,4.528,4.528,0,0,1-1.576.16,8.146,8.146,0,0,1-2.826-.681A15.946,15.946,0,0,1,1362.973,348.372Z" transform="translate(-1294.683 -331.219)" fill="#fff"/>
  </g>
</svg>
