<svg xmlns="http://www.w3.org/2000/svg" xmlns:xlink="http://www.w3.org/1999/xlink" width="82.365" height="88.013" viewBox="0 0 82.365 88.013">
  <defs>
    <filter id="Caminho_24409" x="0" y="5.648" width="82.365" height="82.365" filterUnits="userSpaceOnUse">
      <feOffset dy="3" input="SourceAlpha"/>
      <feGaussianBlur stdDeviation="3" result="blur"/>
      <feFlood flood-opacity="0.251"/>
      <feComposite operator="in" in2="blur"/>
      <feComposite in="SourceGraphic"/>
    </filter>
  </defs>
  <g id="youtube_1_" data-name="youtube (1)" transform="translate(9 11.648)">
    <circle id="Elipse_29" data-name="Elipse 29" cx="27.5" cy="27.5" r="27.5" transform="translate(4.365 4.365)" fill="#4b9719"/>
    <path id="Caminho_24408" data-name="Caminho 24408" d="M224.113,220.1l10.469-6.029-10.469-6.029Zm0,0" transform="translate(-195.939 -181.886)" fill="#fff"/>
    <g transform="matrix(1, 0, 0, 1, -9, -11.65)" filter="url(#Caminho_24409)">
      <path id="Caminho_24409-2" data-name="Caminho 24409" d="M32.182,0A32.182,32.182,0,1,0,64.365,32.182,32.186,32.186,0,0,0,32.182,0ZM52.292,32.215s0,6.527-.828,9.674a5.039,5.039,0,0,1-3.545,3.545c-3.147.828-15.736.828-15.736.828s-12.556,0-15.736-.861A5.04,5.04,0,0,1,12.9,41.856c-.828-3.114-.828-9.674-.828-9.674s0-6.526.828-9.674a5.142,5.142,0,0,1,3.545-3.578c3.147-.828,15.736-.828,15.736-.828s12.589,0,15.736.861a5.04,5.04,0,0,1,3.545,3.545c.861,3.147.828,9.706.828,9.706Zm0,0" transform="translate(9 11.65)" fill="#fff"/>
    </g>
    <g id="Grupo_4804" data-name="Grupo 4804" transform="translate(-1715.635 -149.635)">
      <g id="_020202ff" data-name="#020202ff" transform="translate(1722.635 155.3) rotate(122)">
        <path id="Caminho_3" data-name="Caminho 3" d="M.909.115C3-1.017,8,6.534,7.612,8.893c-.155,2.532-3.718,3.885-5.415,1.949C.587,9.4-1.082.941.909.115Z" transform="translate(0 0)" fill="#fff"/>
      </g>
      <g id="_020202ff-2" data-name="#020202ff" transform="translate(1725.535 153.052) rotate(160)">
        <path id="Caminho_3-2" data-name="Caminho 3" d="M.909.115C3-1.017,8,6.534,7.612,8.893c-.155,2.532-3.718,3.885-5.415,1.949C.587,9.4-1.082.941.909.115Z" transform="translate(0 0)" fill="#fff"/>
      </g>
      <g id="_020202ff-3" data-name="#020202ff" transform="translate(1728.794 151.465) rotate(-163)">
        <path id="Caminho_3-3" data-name="Caminho 3" d="M.909.115C3-1.017,8,6.534,7.612,8.893c-.155,2.532-3.718,3.885-5.415,1.949C.587,9.4-1.082.941.909.115Z" transform="translate(0)" fill="#fff"/>
      </g>
    </g>
  </g>
</svg>
